<svg id="Layer_1" data-name="Layer 1" xmlns="http://www.w3.org/2000/svg" viewBox="0 0 918.55 489.22"><defs><style>.cls-1{fill:#fff;}</style></defs><path class="cls-1" d="M404.57,371q-20.22,0-40.43,0c-4.48,0-4.95-.42-3.94-4.8,2.26-9.82,4.73-19.59,7.09-29.39,2.95-12.25,5.86-24.51,8.81-36.76q4.32-18,8.68-36.05c3-12.24,5.94-24.49,9-36.71.7-2.78-.2-3.74-3-3.68-4.69.11-9.39.09-14.08,0-2.44,0-3.57.94-4.19,3.4-3.68,14.54-7.56,29-11.33,43.54-3.59,13.81-7.08,27.66-10.69,41.47s-7.4,27.83-11.07,41.76c-1.1,4.18-2.1,8.38-3.08,12.59-.75,3.2-2.3,4.73-6,4.71-28.16-.15-56.31-.08-84.46-.08-4.59,0-5-.77-3.84-5,2.48-9,4.76-18.1,7.09-27.17q4.47-17.43,8.89-34.88,4.53-17.78,9.09-35.57,4.38-17.08,8.8-34.16,4.46-17.26,8.88-34.51c3.08-12,6.19-23.93,9.25-35.9,2.92-11.39,5.76-22.8,8.66-34.19s5.9-23,8.86-34.52,6-23.25,8.95-34.87,6.06-23.46,9.06-35.2c1.67-6.51,3.41-13,4.86-19.56.72-3.26,2.29-4.69,5.67-4.68,27.43.06,54.86,0,82.29,0,4.32,0,4.79.6,3.71,4.92-4.47,17.81-9,35.59-13.5,53.39-4.27,17-8.42,34-12.7,51q-4.4,17.46-9.06,34.84c-.69,2.57-.13,3.59,2.59,3.56q8.83-.12,17.68,0c2.52,0,3.64-1.21,4.2-3.53q7.17-29.92,14.47-59.82c4.29-17.48,8.76-34.91,13.09-52.38,2.28-9.21,4.51-18.43,6.58-27.67.67-3,2.14-4.33,5.18-4.33q41.5,0,83,0c3.82,0,4.36.76,3.41,4.6-3.84,15.49-7.76,31-11.59,46.46-3.6,14.56-7.08,29.15-10.71,43.7s-7.4,28.83-11,43.26-7.09,29.15-10.72,43.7-7.41,29.07-11,43.62-7.08,28.91-10.68,43.35c-3,11.88-6,23.73-9,35.6s-5.82,23.54-8.73,35.3c-2.19,8.85-4.42,17.7-6.58,26.56-.74,3.06-2.45,4.16-5.68,4.12C431.76,370.92,418.16,371,404.57,371Z" transform="translate(-3.1)"/><path class="cls-1" d="M3.1,370c1-2.86,1.87-5,2.43-7.24q5.69-22.51,11.25-45.07c3-12,5.81-24,8.78-36s6-23.74,9-35.62,5.84-24,8.81-36,6-24,9-36c2.93-11.76,5.77-23.54,8.68-35.31,3-12.23,6.1-24.45,9.13-36.68q4.36-17.64,8.69-35.3,4.4-17.84,8.8-35.65c2.31-9.32,4.77-18.61,6.89-28C95.09.77,96,.1,98.34.1c50.17.07,100.35-.47,150.51.41,17.44.3,31.45,9.57,39.12,25.83,2.22,4.71,2.73,10.87,2.1,16.14-1.11,9.37-3.58,18.6-5.68,27.84-2.86,12.64-5.92,25.24-8.89,37.86q-3.63,15.42-7.24,30.84c-2.27,9.7-4.49,19.41-6.75,29.11-3.1,13.29-6.94,26.26-15.79,37.1a41.58,41.58,0,0,1-24,14.32,123,123,0,0,1-23.92,2.56c-21,.33-42.11.18-63.16,0-3.24,0-4.6,1.26-5.26,4.07-2.87,12.27-5.72,24.55-8.66,36.8s-6,24.71-9,37.08-5.79,24.53-8.74,36.78c-2.47,10.27-5.09,20.5-7.48,30.79-.65,2.8-2.46,2.79-4.59,2.79q-28.51,0-57,0c-8.43,0-16.85,0-25.27,0C7,370.41,5.51,370.19,3.1,370Zm159-222.21v0h1.8c10.44,0,10.21,0,12.23-10.23s4.51-20.11,6.8-30.16q3.36-14.72,6.74-29.44c.66-2.87-.1-4.26-3.38-4.14-5.16.2-10.33.16-15.49,0-2.74-.08-4,.73-4.61,3.63-2.9,13.47-6.09,26.88-9.17,40.31-2,8.88-4,17.77-6.07,26.64-.59,2.54.19,3.58,2.86,3.44S159.33,147.79,162.1,147.79Z" transform="translate(-3.1)"/><path class="cls-1" d="M732.26,488.61c-20.59,1.38-34.09-15.53-37.62-30.93-3.27-14.22-2.41-28,4.35-41,12.26-23.55,42.2-27,59.75-13.33,8.79,6.85,13.11,16.48,15,27.1,2.18,12,1.68,24.09-3.82,35.25C762.46,480.92,750.41,489.31,732.26,488.61Zm-27-46.43c.35,8.5,1.66,16.7,6.17,23.92,5.17,8.28,12.62,13,22.71,12.85,9.93-.12,17.46-4.72,22.13-13.14,8-14.43,8-29.58,1.39-44.41-8-17.91-30.37-21.37-43.17-6.94C707.54,422.34,705.77,432.14,705.29,442.18Z" transform="translate(-3.1)"/><path class="cls-1" d="M829.83,444.28c10.44,5.74,11.53,15.92,14,25.4,1.2,4.64,2.39,9.29,3.83,13.86.81,2.55.28,3.7-2.46,3.6-10.39-.35-8.52,2.13-11.65-8.77-1.92-6.67-3.44-13.46-5.61-20.05-2.07-6.32-7.2-9-13.53-9.61-12.23-1.13-12.23-1.09-12.23,11.1,0,7.81-.08,15.62.05,23.43,0,2.75-.85,4-3.69,3.92-10.29-.13-8.51,1-8.53-8.26-.07-25.11,0-50.23-.06-75.34,0-2.5.12-4.53,3.29-4.9,11.72-1.35,23.45-2.51,35.07.65,10,2.71,15.92,9.25,17.19,19.47,1.21,9.72-2.76,17.3-10.93,22.68C833.26,442.31,831.9,443.05,829.83,444.28Zm-27.69-20.91c0,4.2.05,8.4,0,12.6,0,1.86.4,3,2.52,3,6.34-.07,12.69.53,18.87-1.72A15.84,15.84,0,0,0,833.56,424c.43-6.2-2.52-11.65-7.79-14.22-6.89-3.36-14.16-3.17-21.45-1.91-.88.15-2,1.89-2.09,2.95C802,415,802.13,419.17,802.14,423.37Z" transform="translate(-3.1)"/><path class="cls-1" d="M322.61,444.28c10.53,5.74,11.55,16,14,25.42,1.22,4.64,2.39,9.3,3.83,13.87.8,2.55.29,3.67-2.47,3.58-10.36-.37-8.53,2.14-11.66-8.79-1.91-6.67-3.4-13.48-5.61-20.06-2.28-6.77-7.85-9.33-14.63-9.62-2.4-.1-4.82.14-7.21,0-3-.23-4,1.08-3.94,4,.12,10-.08,20,.13,29.93.07,3.46-1,4.69-4.49,4.61-9.07-.21-7.75.72-7.76-7.64,0-25.24,0-50.48-.1-75.72,0-3.48,1-5.08,4.5-5.4,11.38-1,22.76-2.23,34,.91,9.79,2.74,15.71,9.17,17,19.22,1.28,9.72-2.62,17.34-10.74,22.79C326.19,442.28,324.71,443.05,322.61,444.28Zm-27.62-21c0,4.32-.14,8.64.11,12.95,0,.95,1.47,2.6,2.29,2.62,6.33.16,12.68.67,18.87-1.57a15.76,15.76,0,0,0,10.12-13.24c.44-6.47-2.48-11.78-8-14.41-6.79-3.22-14-3.07-21.11-1.83-.89.16-2.1,1.85-2.16,2.89C294.83,414.88,295,419.09,295,423.29Z" transform="translate(-3.1)"/><path class="cls-1" d="M453.19,442.17c0-13.46.09-26.92-.06-40.38,0-3.27.88-4.46,4.27-4.41,9.52.15,7.93-.18,8,7.92.06,8.65.11,17.31-.05,26-.05,2.75.62,3.89,3.57,3.87q18.23-.18,36.44,0c2.74,0,3.44-1,3.4-3.6-.15-10,0-19.95-.13-29.93-.05-3.12.92-4.24,4.1-4.2,9.81.12,8.13-.24,8.15,8.11,0,25.72,0,51.44.1,77.16,0,3.56-1.2,4.6-4.59,4.53-8.94-.2-7.64.76-7.68-7.72-.05-10.09-.08-20.19.05-30.28,0-2.55-.49-3.7-3.33-3.67-12.26.11-24.53.08-36.8,0-2.5,0-3.31.87-3.28,3.4.13,11.29-.05,22.59.14,33.89.06,3.39-1.15,4.41-4.38,4.35-9.25-.18-7.84.79-7.88-7.87C453.15,466.93,453.2,454.55,453.19,442.17Z" transform="translate(-3.1)"/><path class="cls-1" d="M168.91,397.45h.36c6.93,0,6.75.06,8.9,6.54,5.51,16.62,11.18,33.2,16.82,49.78q5.16,15.15,10.42,30.26c.72,2.06,0,3-2,3.08a38,38,0,0,1-7.55-.12,5.33,5.33,0,0,1-3.52-2.77c-2.47-6.63-4.68-13.35-6.79-20.11-1-3.22-2.41-4.94-6.27-4.76-7.56.35-15.15.17-22.73.06-2.46,0-3.87.47-4.67,3.18-2.09,7.13-4.69,14.12-6.88,21.22-.72,2.36-1.9,3.38-4.33,3.34-9.89-.15-10,1.29-6.61-8.67,6.31-18.25,12.27-36.62,18.4-54.93,2.59-7.73,5.12-15.48,8-23.1.49-1.29,2.38-2.37,3.85-2.88s3.09-.11,4.66-.11Zm-.27,13.85a15.24,15.24,0,0,0-1.63,2.59c-3.44,10.73-6.79,21.48-10.24,32.2-.89,2.79.12,3.75,2.87,3.71,5.4-.08,10.81,0,16.21,0,4.79,0,5.19-.6,3.63-5.24-2-5.9-4-11.8-5.91-17.72C172,422,170.47,417.06,168.64,411.3Z" transform="translate(-3.1)"/><path class="cls-1" d="M217.41,442V402c0-4.49.06-4.56,4.69-4.57h39c4.92,0,5.11.19,5.1,4.63,0,5.37-.2,5.58-5.36,5.58-9,0-18,.08-27.06-.06-3-.05-4.33.71-4.21,4,.24,6.72.17,13.46,0,20.19-.06,2.71.95,3.59,3.58,3.56,8.9-.09,17.8-.05,26.7,0,4,0,4.18.46,4.4,5.51.14,3.3-.73,4.84-4.38,4.76-8.53-.19-17.08.08-25.61-.13-3.49-.08-4.9.7-4.72,4.57.33,7.44.1,14.9.09,22.35,0,4.53,0,4.54,4.66,4.54h28.87c4.75,0,5,.3,5,5.58,0,4.45-.15,4.61-5.1,4.62H221.93c-4.52,0-4.52,0-4.52-4.7Z" transform="translate(-3.1)"/><path class="cls-1" d="M5.47,443.05c0-13.22.07-26.44-.06-39.66,0-2.95.82-4.4,3.89-4.74,10.65-1.18,21.21-1.9,31.9.32,15.87,3.31,22.72,18.34,19,32.55-2.92,11.34-10.6,17.81-21.77,19.9-5.81,1.09-11.86,1.11-17.8,1.21-3,.05-3,1.66-3,3.7q0,13,0,26c0,4.68-.13,4.84-4.86,4.84-8.4,0-7.31.72-7.33-7.3C5.45,467.57,5.47,455.31,5.47,443.05ZM17.66,425c0,4.56.1,9.12,0,13.68-.09,2.87,1.06,4.27,3.94,4.26s5.53.17,8.28,0c10-.66,16.46-5.57,18.7-14,1.86-7-1.09-16.82-9.15-19.66-6.19-2.17-12.36-2.39-18.75-1.69-2.34.25-3.08,1.17-3,3.4C17.72,415.65,17.65,420.32,17.66,425Z" transform="translate(-3.1)"/><path class="cls-1" d="M591.22,489.22a51.45,51.45,0,0,1-19.74-4.08c-2.53-1.05-3.3-2.46-2.44-5,2.24-6.63,2.12-6.41,8.81-3.9,7.42,2.77,15,4.07,22.86,1.16,5.12-1.89,8.22-5.45,9.12-10.64,1-6-.55-11.43-5.78-14.9a76.75,76.75,0,0,0-12.43-6.39c-5.91-2.52-11.52-5.35-15.87-10.26-10.32-11.64-6.91-31,11-37.6,9.18-3.37,18.45-2.72,27.58.31,1.51.5,3.89,2.25,3.77,3.13-.39,2.74-1.73,5.37-2.91,7.94-.09.2-1.92-.26-2.87-.61-7.5-2.76-15-4.31-22.7-.67s-9.76,14.27-3.6,20c3.33,3.11,7.75,5.08,11.78,7.4,5.39,3.1,11.53,5.26,16.19,9.2,14.54,12.29,9.4,36.77-8.75,42.54C600.78,488.28,595.91,488.47,591.22,489.22Z" transform="translate(-3.1)"/><path class="cls-1" d="M372.58,488.48c-6.32.68-12.67-.72-18.88-3.28-2.94-1.21-3.45-2.8-2.37-5.6,2.34-6.06,2.17-5.84,8.44-3.46C367.3,479,375,480.3,383,477.31a13.15,13.15,0,0,0,8.92-10.41c1.09-6-.4-11.47-5.63-15a78.1,78.1,0,0,0-12.73-6.56c-8.23-3.53-15.92-7.62-19.58-16.43-5.41-13.05,1.25-26.09,14.4-31.2,9.35-3.63,18.89-2.93,28.29.15,4,1.31,4.41,2.45,2.94,6.48-.33.9-.72,1.79-1,2.71-.61,2.09-1.64,2.57-3.74,1.57a31.3,31.3,0,0,0-17.2-2.82c-6.53.72-11.25,4.54-12.76,10.45a13.06,13.06,0,0,0,6.32,14.17c5.67,3.32,11.81,5.83,17.69,8.81,15.18,7.68,20.09,24,11.22,37.94-4.49,7-11.4,10.39-19.55,11.23C378.06,488.7,375.51,488.48,372.58,488.48Z" transform="translate(-3.1)"/><path class="cls-1" d="M886.56,439.36c1.22-2.76,2.07-4.95,3.13-7,5.24-10.24,10.63-20.41,15.78-30.7,1.62-3.22,3.76-4.63,7.39-4.24a86.43,86.43,0,0,0,8.8.06c-2.06,3.57-3.65,6.36-5.27,9.14-7.72,13.27-15.51,26.5-23.12,39.84a13.14,13.14,0,0,0-1.58,6.09q-.24,15.12,0,30.27c0,3.2-.77,4.49-4.22,4.42-9.5-.19-8,.34-8-7.85-.05-9,.1-18-.08-27a14.75,14.75,0,0,0-1.68-6.43c-8.2-15.2-16.56-30.31-24.85-45.46-.32-.59-.5-1.26-1-2.64,4.65,0,8.89-.31,13,.21,1.13.14,2.11,2.69,2.9,4.27,5.66,11.37,11.26,22.78,16.9,34.16A32.2,32.2,0,0,0,886.56,439.36Z" transform="translate(-3.1)"/><path class="cls-1" d="M665.48,447.45c0,11.77-.1,23.55.07,35.33.05,3.32-1,4.47-4.33,4.4-9.33-.18-7.9.78-7.92-7.83q-.07-33.89.05-67.78c0-3-.79-4.06-3.84-4-6.49.18-13,.09-19.49,0-3.9,0-4-.48-4.23-5.69-.14-3.2.8-4.56,4.2-4.54,19.48.09,39,.12,58.45,0,4.06,0,4.43,2.07,4.31,5.25-.18,4.59-.39,5-4.5,5-6.37,0-12.75.09-19.12-.05-2.83-.06-3.75.94-3.72,3.78.14,12,.06,24,.06,36.06Z" transform="translate(-3.1)"/><path class="cls-1" d="M74.8,442.42q0-20.19,0-40.39c0-4.5,0-4.55,4.68-4.58,9.06-.07,7.49,0,7.51,7.6,0,22.6.06,45.2-.06,67.79,0,3.15.91,4.22,4.09,4.17,9.86-.16,19.73.07,29.58-.14,3.42-.07,4.61,1.2,4.33,4.39-.09,1.08.33,2.33-.1,3.2-.51,1.05-1.66,2.54-2.55,2.55-14.91.15-29.83.09-44.74.13-3,0-2.75-2-2.75-4Q74.82,462.79,74.8,442.42Z" transform="translate(-3.1)"/><path class="cls-1" d="M540.36,442.19c0-13.47.08-26.93-.06-40.39,0-3.24.84-4.47,4.26-4.42,9.53.15,8-.17,8,7.91q.06,38.58,0,77.16c0,4.49-.16,4.68-4.67,4.68-8.67,0-7.53.77-7.55-7.44C540.34,467.19,540.36,454.69,540.36,442.19Z" transform="translate(-3.1)"/></svg>