<?xml version="1.0" encoding="utf-8"?>
<!-- Generator: Adobe Illustrator 25.0.0, SVG Export Plug-In . SVG Version: 6.00 Build 0)  -->
<svg version="1.1" id="Layer_1" xmlns="http://www.w3.org/2000/svg" xmlns:xlink="http://www.w3.org/1999/xlink" x="0px" y="0px"
	 viewBox="0 0 800 800" style="enable-background:new 0 0 800 800;" xml:space="preserve">
<style type="text/css">
	.st0{fill:#FFFFFF;}
</style>
<path class="st0" d="M417.7,0.7C461.3,0,504.7,0.3,548,0c2.7,51,21,103,58.3,139c37.3,37,90,54,141.3,59.7V333
	c-48-1.7-96.3-11.7-140-32.3c-19-8.7-36.7-19.7-54-31c-0.3,97.3,0.3,194.7-0.7,291.7c-2.7,46.7-18,93-45,131.3
	c-43.7,64-119.3,105.7-197,107c-47.7,2.7-95.3-10.3-136-34.3C107.7,725.7,60.3,653,53.3,575c-0.7-16.7-1-33.3-0.3-49.7
	c6-63.3,37.3-124,86-165.3c55.3-48,132.7-71,205-57.3c0.7,49.3-1.3,98.7-1.3,148C309.7,440,271,443,242,463
	c-21,13.7-37,34.7-45.3,58.3c-7,17-5,35.7-4.7,53.7c8,54.7,60.7,100.7,116.7,95.7c37.3-0.3,73-22,92.3-53.7
	c6.3-11,13.3-22.3,13.7-35.3c3.3-59.7,2-119,2.3-178.7C417.3,268.7,416.7,134.7,417.7,0.7L417.7,0.7z"/>
</svg>
