<svg id="Layer_1" data-name="Layer 1" xmlns="http://www.w3.org/2000/svg" viewBox="0 0 1402.66 939.85"><defs><style>.cls-1{fill:none;}.cls-2{fill:#fff;}</style></defs><path class="cls-1" d="M0,194.24" transform="translate(0 -194.24)"/><path class="cls-2" d="M568.86,867.45V477.89L930.7,672.66ZM1373.73,355.3c-15.92-56.73-62.86-101.4-122.4-116.56-107.91-27.55-540.88-27.55-540.88-27.55s-433,0-540.87,27.51C110,253.87,63.13,298.5,47.17,355.27,18.24,458.13,18.24,672.66,18.24,672.66s0,214.53,28.93,317.36c15.92,56.73,62.87,101.4,122.41,116.57,107.95,27.51,540.87,27.51,540.87,27.51s433,0,540.88-27.51c59.56-15.17,106.45-59.8,122.4-116.57,28.93-102.86,28.93-317.36,28.93-317.36s0-214.53-28.93-317.36M0,194.24" transform="translate(0 -194.24)"/></svg>