<?xml version="1.0" encoding="utf-8"?>
<!-- Generator: Adobe Illustrator 25.0.0, SVG Export Plug-In . SVG Version: 6.00 Build 0)  -->
<svg version="1.1" id="Layer_1" xmlns="http://www.w3.org/2000/svg" xmlns:xlink="http://www.w3.org/1999/xlink" x="0px" y="0px"
	 viewBox="0 0 800 800" style="enable-background:new 0 0 800 800;" xml:space="preserve">
<style type="text/css">
	.st0{fill:#FFFFFF;}
</style>
<g id="XMLID_822_">
	<path id="XMLID_823_" class="st0" d="M739.9,185.1c-26.6-31.6-75.7-44.5-169.6-44.5H229.7c-96,0-145.9,13.7-172.5,47.4
		c-25.8,32.8-25.8,81.2-25.8,148.2v127.6c0,129.7,30.7,195.6,198.3,195.6h340.6c81.4,0,126.5-11.4,155.6-39.3
		c29.9-28.6,42.7-75.4,42.7-156.3V336.2C768.6,265.6,766.6,216.9,739.9,185.1z M504.7,417.6L350,498.5c-3.5,1.8-7.2,2.7-11,2.7
		c-4.3,0-8.5-1.2-12.3-3.4c-7.1-4.3-11.5-12-11.5-20.3V316.2c0-8.3,4.3-16,11.4-20.3c7.1-4.3,15.9-4.6,23.3-0.8l154.7,80.3
		c7.9,4.1,12.8,12.2,12.8,21.1C517.5,405.4,512.5,413.5,504.7,417.6z"/>
</g>
</svg>
